<svg width="18" height="21" viewBox="0 0 18 21" fill="none" xmlns="http://www.w3.org/2000/svg">
<g clip-path="url(#clip0_58_81)">
<path opacity="0.15" d="M4.34063 13.9485C4.34063 13.5699 4.20201 13.2467 3.92479 12.9788C3.64756 12.711 3.31304 12.5771 2.92123 12.5771C2.52942 12.5771 2.1949 12.711 1.91768 12.9788C1.64045 13.2467 1.50184 13.5699 1.50184 13.9485C1.50184 14.3271 1.64045 14.6503 1.91768 14.9181C2.1949 15.186 2.52942 15.3199 2.92123 15.3199C3.31304 15.3199 3.64756 15.186 3.92479 14.9181C4.20201 14.6503 4.34063 14.3271 4.34063 13.9485ZM15.6958 13.9485C15.6958 13.5699 15.5572 13.2467 15.2799 12.9788C15.0027 12.711 14.6682 12.5771 14.2764 12.5771C13.8846 12.5771 13.5501 12.711 13.2728 12.9788C12.9956 13.2467 12.857 13.5699 12.857 13.9485C12.857 14.3271 12.9956 14.6503 13.2728 14.9181C13.5501 15.186 13.8846 15.3199 14.2764 15.3199C14.6682 15.3199 15.0027 15.186 15.2799 14.9181C15.5572 14.6503 15.6958 14.3271 15.6958 13.9485ZM15.1857 9.70563L14.3873 5.59135C14.3503 5.42706 14.2671 5.29313 14.1378 5.18956C14.0084 5.08599 13.8587 5.0342 13.6887 5.0342H3.50895C3.33892 5.0342 3.18922 5.08599 3.05984 5.18956C2.93047 5.29313 2.8473 5.42706 2.81034 5.59135L2.01193 9.70563C1.97497 9.91992 2.02672 10.1092 2.16718 10.2735C2.30764 10.4378 2.48876 10.5199 2.71054 10.5199H14.4871C14.7089 10.5199 14.89 10.4378 15.0304 10.2735C15.1709 10.1092 15.2226 9.91992 15.1857 9.70563ZM12.6796 3.14849C12.6796 3.00563 12.6278 2.88421 12.5243 2.78421C12.4208 2.68421 12.2951 2.63421 12.1473 2.63421H5.05032C4.90247 2.63421 4.77679 2.68421 4.6733 2.78421C4.5698 2.88421 4.51805 3.00563 4.51805 3.14849C4.51805 3.29135 4.5698 3.41278 4.6733 3.51278C4.77679 3.61278 4.90247 3.66278 5.05032 3.66278H12.1473C12.2951 3.66278 12.4208 3.61278 12.5243 3.51278C12.6278 3.41278 12.6796 3.29135 12.6796 3.14849ZM17.1152 10.9163V17.3771H15.6958V18.7485C15.6958 19.1271 15.5572 19.4503 15.2799 19.7181C15.0027 19.986 14.6682 20.1199 14.2764 20.1199C13.8846 20.1199 13.5501 19.986 13.2728 19.7181C12.9956 19.4503 12.857 19.1271 12.857 18.7485V17.3771H4.34063V18.7485C4.34063 19.1271 4.20201 19.4503 3.92479 19.7181C3.64756 19.986 3.31304 20.1199 2.92123 20.1199C2.52942 20.1199 2.1949 19.986 1.91768 19.7181C1.64045 19.4503 1.50184 19.1271 1.50184 18.7485V17.3771H0.0824432V10.9163C0.0824432 10.1163 0.174852 9.31992 0.359669 8.52706L1.50184 3.66278C1.56837 3.10563 1.92876 2.61635 2.58302 2.19492C3.23727 1.77349 4.08743 1.45564 5.13349 1.24135C6.17955 1.02706 7.33466 0.919922 8.59881 0.919922C9.86296 0.919922 11.0181 1.02706 12.0641 1.24135C13.1102 1.45564 13.9603 1.77349 14.6146 2.19492C15.2689 2.61635 15.6292 3.10563 15.6958 3.66278L16.8601 8.52706C17.0302 9.25563 17.1152 10.0521 17.1152 10.9163Z" fill="#1D2E5B"/>
</g>
<defs>
<clipPath id="clip0_58_81">
<rect width="17.0398" height="19.2" fill="white" transform="translate(0.0795898 0.919922)"/>
</clipPath>
</defs>
</svg>
