<svg width="17" height="16" viewBox="0 0 17 16" fill="none" xmlns="http://www.w3.org/2000/svg"><path d="M4.455 10.857c0-.315-.136-.585-.408-.808a1.503 1.503 0 0 0-.985-.335c-.385 0-.713.112-.985.335-.272.223-.408.493-.408.808 0 .316.136.585.408.808.272.223.6.335.985.335s.713-.112.985-.335c.272-.223.408-.492.408-.808Zm11.147 0c0-.315-.136-.585-.408-.808a1.503 1.503 0 0 0-.985-.335c-.385 0-.713.112-.985.335-.272.223-.408.493-.408.808 0 .316.136.585.408.808.272.223.6.335.985.335s.713-.112.985-.335c.272-.223.408-.492.408-.808Zm-.5-3.536-.784-3.428a.576.576 0 0 0-.245-.335.766.766 0 0 0-.441-.13H3.639a.765.765 0 0 0-.44.13.576.576 0 0 0-.246.335L2.17 7.32a.495.495 0 0 0 .153.474.725.725 0 0 0 .533.205h11.56a.725.725 0 0 0 .534-.205.495.495 0 0 0 .153-.474Zm-2.46-5.464a.38.38 0 0 0-.153-.303.565.565 0 0 0-.37-.125H5.152a.565.565 0 0 0-.37.125.38.38 0 0 0-.152.303c0 .12.05.22.152.304a.565.565 0 0 0 .37.125h6.967a.564.564 0 0 0 .37-.125.38.38 0 0 0 .152-.304Zm4.354 6.473v5.384h-1.394v1.143c0 .316-.136.585-.408.808-.272.223-.6.335-.985.335s-.713-.112-.985-.335c-.272-.223-.408-.492-.408-.808v-1.143h-8.36v1.143c0 .316-.137.585-.409.808-.272.223-.6.335-.985.335s-.713-.112-.985-.335c-.272-.223-.408-.492-.408-.808v-1.143H.275V8.33c0-.666.091-1.33.273-1.99l1.12-4.054c.066-.465.42-.872 1.062-1.224.642-.35 1.477-.616 2.504-.794A19.92 19.92 0 0 1 8.636 0c1.24 0 2.374.09 3.401.268 1.027.178 1.862.443 2.504.794.642.352.996.76 1.061 1.224l1.143 4.053c.167.607.25 1.271.25 1.991Z" fill="#1D2E5B"/></svg>