<svg width="156" height="42" viewBox="0 0 156 42" fill="none" xmlns="http://www.w3.org/2000/svg"><path d="M78.016 10.62 44.736 42 32.59 1.772l45.427 8.849Z" fill="#FF8D30"/><ellipse cx="78.624" cy="28.474" rx="3.613" ry="3.572" fill="#88BFEB"/><ellipse cx="92.85" cy="18.086" rx="12.594" ry="12.45" fill="#EB9898"/><path fill="#72A73E" d="m85.439 19.575 43.818-16.03 8.258 22.06-43.818 16.029z"/><ellipse cx="91.334" cy="34.141" rx="2.117" ry="2.093" fill="#FFBD30"/><ellipse rx="18.919" ry="7.587" transform="matrix(.97025 .24212 -.24742 .9689 132.047 28.05)" fill="#8EC7F5"/><ellipse cx="146.385" cy="10.256" rx="2.153" ry="2.128" fill="#FFBD30"/><ellipse cx="153.102" cy="7.728" rx="2.153" ry="2.128" fill="#FFBD30"/><path d="M3.342 35.349h4.99v2.32a1 1 0 0 1-1 1h-2.99a1 1 0 0 1-1-1v-2.32ZM34.203 35.349h4.991v2.32a1 1 0 0 1-1 1h-2.99a1 1 0 0 1-1-1v-2.32Z" fill="#1D2959"/><path fill-rule="evenodd" clip-rule="evenodd" d="M23.92 2.938c-.973-.384-2.036-.693-2.808-.677-.726.014-1.721.325-2.629.7-.508.21-1.01.44-1.493.702l-.003.002a1.187 1.187 0 0 1-1.609-.462 1.175 1.175 0 0 1 .464-1.6c.167-.091.335-.177.505-.262.306-.15.735-.353 1.23-.557.948-.391 2.29-.76 3.488-.783 1.274-.025 2.712.346 3.729.747.633.25 1.259.527 1.86.849.575.31.79 1.024.478 1.597-.309.569-1.038.778-1.607.474a17.896 17.896 0 0 0-1.604-.73Z" fill="#8A4A38"/><path fill-rule="evenodd" clip-rule="evenodd" d="M15.993 1.45a.961.961 0 0 0-.961.961v.615c0 .442.358.801.8.801h.022v3.067h.84V3.805h-.219a1.189 1.189 0 0 0-.229-2.355h-.253ZM26.512 1.45c.532 0 .962.43.962.961v.615a.801.801 0 0 1-.801.801h-.022v3.067h-.839V3.805h.219a1.189 1.189 0 0 1 .228-2.355h.253Z" fill="#F6EF3E"/><path d="M0 15.52a9 9 0 0 1 9-9h24.54a9 9 0 0 1 9 9V35.35H0V15.52Z" fill="#8A4A38"/><ellipse cx="6.684" cy="27.928" rx="4.167" ry="4.121" fill="#EF9A9A"/><ellipse rx="4.016" ry="7.727" transform="matrix(.70085 -.71331 .72133 .69259 32.766 28.07)" fill="#93C6EB"/><path fill="#C2DEA3" d="m16.396 17.905 9.432-9.925 5.588 5.19-9.432 9.925z"/><rect width="6.956" height="5.217" rx="1" transform="matrix(.7339 .67927 -.68766 .72603 8.785 11.14)" fill="#C49A6C"/><path fill="#F57B20" d="M8.333 19.362H14.2v16.8H8.333z"/><path d="M8.333 5.434H14.2v14.548a2.933 2.933 0 1 1-5.867 0V5.434Z" fill="#F6A725"/><path fill="#F6EF3E" d="M7.52 18.042h7.499v1.649H7.52z"/><path fill="#F57B20" d="M28.346 19.362h5.867v16.8h-5.867z"/><path d="M28.346 5.434h5.867v14.548a2.933 2.933 0 1 1-5.867 0V5.434Z" fill="#F6A725"/><path fill="#F6EF3E" d="M27.533 18.042h7.499v1.649h-7.499z"/></svg>