<svg width="133" height="25" viewBox="0 0 133 25" fill="none" xmlns="http://www.w3.org/2000/svg"><g filter="url(#a)" fill="#fff"><path d="M129.541 9.687c.972-.604 1.459-1.536 1.459-2.794 0-1.645-.701-2.937-2.101-3.877-1.361-.957-2.966-1.435-4.814-1.435-1.809 0-3.462.52-4.959 1.56-1.479 1.024-2.218 2.392-2.218 4.104 0 .638.205 1.167.613 1.586.408.403.992.604 1.751.604.739 0 1.303-.201 1.692-.604.408-.42.612-.948.612-1.586-.039-.487.127-.982.496-1.485.37-.52 1.041-.78 2.013-.78.817.016 1.401.218 1.751.604.369.386.535.772.496 1.158 0 .268-.097.537-.292.805a2.68 2.68 0 0 1-.613.63c-.194.15-.515.369-.962.654-.448.285-.759.487-.934.604-1.011.722-1.517 1.679-1.517 2.87 0 .588.214 1.083.642 1.486.447.386 1.04.579 1.779.579.739 0 1.323-.193 1.751-.58.447-.402.671-.897.671-1.485 0-.252.049-.486.146-.705.097-.218.253-.42.467-.604.233-.184.427-.336.583-.453.175-.117.428-.269.759-.453.35-.185.593-.319.729-.403ZM104.612 14.987l5.167-6.25c.53-.754 1.249-1.174 2.158-1.26.908-.103 1.703.111 2.384.643.682.531 1.003 1.243.966 2.135v8.95c0 .567-.228 1.047-.682 1.441-.435.377-.965.566-1.59.566-.624 0-1.164-.189-1.618-.566-.435-.394-.653-.874-.653-1.44V13.65l-5.167 6.25c-.53.755-1.249 1.175-2.158 1.26-.908.103-1.703-.11-2.385-.643-.681-.531-1.003-1.243-.965-2.134V9.457c0-.566.218-1.046.653-1.44a2.387 2.387 0 0 1 1.618-.592c.625 0 1.155.198 1.59.592.455.394.682.874.682 1.44v5.53Z"/><path fill-rule="evenodd" clip-rule="evenodd" d="M81.381 19.118v-9.71c0-.56-.239-1.04-.716-1.44a2.34 2.34 0 0 0-1.634-.629c-.611 0-1.146.21-1.605.628-.458.402-.688.882-.688 1.44v-.235c-.229-.524-.687-.969-1.375-1.335-.688-.384-1.471-.576-2.35-.576-1.72 0-3.305.62-4.757 1.858-1.414 1.24-2.12 2.94-2.12 5.104 0 2.216.697 3.935 2.092 5.157 1.394 1.221 2.99 1.832 4.785 1.832.879 0 1.653-.157 2.321-.471.669-.332 1.156-.724 1.462-1.178.114.471.382.864.802 1.178.42.296.898.445 1.433.445.63 0 1.175-.2 1.633-.602.478-.402.717-.89.717-1.466Zm-7.33-1.784c1.567 0 2.837-1.344 2.837-3.001 0-1.658-1.27-3-2.836-3-1.566 0-2.836 1.342-2.836 3 0 1.657 1.27 3 2.836 3Z"/><path d="M60.096 12.37V9.564c0-.57.237-1.055.71-1.452a2.433 2.433 0 0 1 1.656-.622c.63 0 1.182.207 1.655.622.473.397.71.881.71 1.452v9.616c0 .57-.237 1.055-.71 1.452-.453.397-1.005.596-1.655.596-.65 0-1.212-.199-1.686-.596-.453-.398-.68-.881-.68-1.452v-2.848h-5.114v2.848c0 .57-.237 1.055-.71 1.452-.453.397-1.005.596-1.655.596-.65 0-1.212-.199-1.685-.596-.454-.398-.68-.881-.68-1.452V9.564c0-.57.236-1.055.71-1.452a2.433 2.433 0 0 1 1.655-.622c.63 0 1.182.207 1.655.622.473.397.71.881.71 1.452v2.806h5.114ZM47.878 7.49c.464 0 .86.172 1.192.515.33.344.496 1.136.496 1.617 0 .481-.165.979-.496 1.322-.331.344-.728.465-1.192.465h-3.964v7.82c0 1.48-1.33 2-2.666 2-1.238 0-2.42-.657-2.42-1.985l.04-11.754h9.01ZM19.598 1.58v17.463c0 .576-.32 1.064-.763 1.466-.425.4-1.093.601-1.703.601-.61 0-1.49-.2-1.934-.601a1.94 1.94 0 0 1-.637-1.466V5.523H7.428v13.52c0 .576-.221 1.064-.665 1.466-.425.4-1.29.601-1.9.601-.61 0-1.408-.2-1.852-.601a1.94 1.94 0 0 1-.637-1.466V1.58h17.224ZM35.385 19.087c-1.443 1.323-3.373 1.986-5.791 1.986-2.419 0-4.338-.663-5.76-1.986-1.463-1.344-2.195-3.024-2.195-5.04 0-2.034.732-3.714 2.196-5.038 1.42-1.324 3.34-1.986 5.759-1.986 2.418 0 4.348.662 5.79 1.986 1.443 1.344 2.164 3.023 2.164 5.039 0 2.015-.721 3.695-2.163 5.039Zm-3.755-7.114a2.478 2.478 0 0 0-1.495-.74 3.132 3.132 0 0 0-1.655.147c-.51.198-.944.534-1.305 1.008-.339.474-.487 1.028-.445 1.66 0 .83.265 1.521.796 2.075.551.533 1.24.8 2.068.8.848 0 1.537-.257 2.068-.77.53-.534.795-1.236.795-2.105 0-.83-.276-1.522-.827-2.075ZM88.154 7.425c2.712 0 9.938.04 9.938.04s.005 8.633.005 11.65c0 .58-.244 1.079-.731 1.498-.466.4-.887.6-1.597.6s-1.07.052-1.558-.347c-.466-.42-.894-1.172-.894-1.751v-7.793h-3.292c0 5.586 0 6.813-2.104 8.812-.776.719-1.774 1.079-2.993 1.079-.732 0-1.162-.172-1.627-.571-.466-.42-.827-1.09-.827-1.71 0-1.332.286-1.863 1.018-2.733 2.099 0 2.008-.497 1.876-4.278V9.523c.023-.58.132-2.098.132-2.098h2.654ZM127.194 18.275c0 1.622-1.406 2.937-3.141 2.937s-3.141-1.315-3.141-2.937c0-1.622 1.406-2.937 3.141-2.937s3.141 1.315 3.141 2.937Z"/></g><defs><filter id="a" x=".374" y=".581" width="132.625" height="23.647" filterUnits="userSpaceOnUse" color-interpolation-filters="sRGB"><feFlood flood-opacity="0" result="BackgroundImageFix"/><feColorMatrix in="SourceAlpha" values="0 0 0 0 0 0 0 0 0 0 0 0 0 0 0 0 0 0 127 0" result="hardAlpha"/><feOffset dy="1"/><feGaussianBlur stdDeviation="1"/><feColorMatrix values="0 0 0 0 0 0 0 0 0 0 0 0 0 0 0 0 0 0 0.3 0"/><feBlend in2="BackgroundImageFix" result="effect1_dropShadow_13528_964"/><feBlend in="SourceGraphic" in2="effect1_dropShadow_13528_964" result="shape"/></filter></defs></svg>