<svg width="24" height="32" viewBox="0 0 24 32" fill="none" xmlns="http://www.w3.org/2000/svg">
<path d="M12 0.133301C5.42919 0.133301 0.0999756 5.46252 0.0999756 12.0333C0.0999756 19.6771 5.84742 23.019 7.11792 24.5436C10.1692 28.2051 10.3416 31.8666 12 31.8666C13.6583 31.8666 13.8307 28.2051 16.882 24.5436C18.1525 23.019 23.9 19.6771 23.9 12.0333C23.9 5.46252 18.5708 0.133301 12 0.133301ZM12 19.9666C7.61879 19.9666 4.06664 16.4145 4.06664 12.0333C4.06664 7.65212 7.61879 4.09997 12 4.09997C16.3812 4.09997 19.9333 7.65212 19.9333 12.0333C19.9333 16.4145 16.3812 19.9666 12 19.9666ZM12 8.06663C9.81038 8.06663 8.03331 9.8437 8.03331 12.0333C8.03331 14.2229 9.81038 16 12 16C14.1896 16 15.9666 14.2229 15.9666 12.0333C15.9666 9.8437 14.1896 8.06663 12 8.06663Z" fill="#FFD74B"/>
</svg>
