<svg width="21" height="19" viewBox="0 0 21 19" fill="none" xmlns="http://www.w3.org/2000/svg"><path d="M20.124.687A1.502 1.502 0 0 0 18.603.45l-17.34 7a1.493 1.493 0 0 0 .076 2.79l3.742 1.3 2.027 6.702c.004.013.017.022.022.035a.475.475 0 0 0 .309.284c.01.003.016.012.026.014H7.474a.433.433 0 0 0 .225-.011c.008-.002.016-.002.025-.005a.478.478 0 0 0 .184-.118c.006-.007.016-.008.022-.014l2.915-3.218 4.256 3.295c.258.202.576.312.905.312.71 0 1.322-.498 1.468-1.192l3.157-15.501a1.483 1.483 0 0 0-.507-1.438ZM8.166 12.813l-.684 3.326-1.428-4.72 7.08-3.688-4.837 4.837a.482.482 0 0 0-.131.245Zm8.36 4.618a.522.522 0 0 1-.336.386.507.507 0 0 1-.497-.076l-4.61-3.57a.484.484 0 0 0-.654.059L8.4 16.465l.683-3.317 6.957-6.958a.484.484 0 0 0-.565-.77L5.446 10.643l-3.79-1.318a.509.509 0 0 1-.35-.476.515.515 0 0 1 .324-.502l17.336-7a.519.519 0 0 1 .54.084.506.506 0 0 1 .176.501l-3.156 15.499v-.001Z" fill="#000"/></svg>