<svg width="21" height="16" viewBox="0 0 21 16" fill="none" xmlns="http://www.w3.org/2000/svg"><path d="M13.603 7.325 9.248 4.422a.363.363 0 0 0-.563.299v5.806a.354.354 0 0 0 .191.318.41.41 0 0 0 .172.045.327.327 0 0 0 .2-.063l4.355-2.903a.354.354 0 0 0 0-.6ZM9.41 9.847V5.401l3.339 2.223-3.339 2.223ZM19.8 2.435A1.851 1.851 0 0 0 18.702 1.2C15.635.02 10.709.04 10.5.04 10.291.04 5.365.02 2.298 1.2a1.85 1.85 0 0 0-1.097 1.235c-.227.88-.5 2.495-.5 5.19 0 2.694.273 4.309.5 5.189a1.85 1.85 0 0 0 1.097 1.234c3.067 1.18 7.993 1.16 8.202 1.16h.063c.627 0 5.226-.035 8.139-1.16a1.851 1.851 0 0 0 1.097-1.234c.227-.88.5-2.495.5-5.19 0-2.694-.273-4.31-.5-5.19Zm-.707 10.197a1.088 1.088 0 0 1-.653.735c-2.94 1.134-7.885 1.116-7.939 1.116-.054 0-4.999.018-7.939-1.116a1.089 1.089 0 0 1-.653-.735c-.217-.843-.48-2.395-.48-5.008s.263-4.164.48-5.008a1.089 1.089 0 0 1 .653-.735C5.501.747 10.446.765 10.5.765c.054 0 4.999-.018 7.939 1.116a1.089 1.089 0 0 1 .653.735c.218.844.48 2.395.48 5.008s-.262 4.165-.48 5.008Z" fill="#000"/></svg>